#!OML:ASF I:\Actors\actors\Patient Classification 1\Patient 1\Session 1\Subject1.ASF
:FULLY-SPECIFIED
:DEGREES
301
root -0.173369 17.5665 8.13059 5.24661 10.5818 -10.0913
lowerback -0.26521 3.74663 5.41841
upperback -4.92949 5.17822 0.378734
thorax -4.52267 2.37769 -2.79714
lowerneck -0.782203 -1.64057 -1.76639
upperneck 17.4057 -3.70072 10.772
head 5.57334 -1.19152 3.51084
rclavicle 1.78658e-014 9.54166e-015
rhumerus 1.0586 41.5177 -96.0891
rradius 126.735
rwrist 47.5977
rhand -15.0662 -62.3999
rfingers 7.12502
rthumb 11.1009 -267.914
lclavicle 1.78658e-014 9.54166e-015
lhumerus -12.2653 -39.1748 104.647
lradius 129.222
lwrist -35.442
lhand -40.4069 -18.933
lfingers 7.12502
lthumb -13.36 10.6186
rfemur -2.676 15.8393 28.4558
rtibia 6.95524
rfoot -16.77 -27.3285
rtoes 7.66037
lfemur -0.852117 -39.1948 -5.27035
ltibia -2.04474
lfoot -8.71562 39.7392
ltoes -5.83725
302
root -0.170621 17.5664 8.13402 5.29256 10.5136 -10.0454
lowerback -0.343501 3.94856 5.4302
upperback -4.95345 5.43261 0.0967289
thorax -4.45381 2.49993 -3.09352
lowerneck -0.374903 -1.9028 -1.19456
upperneck 16.8775 -4.03387 10.7606
head 5.35423 -1.34915 3.38947
rclavicle -2.54444e-014 -1.35174e-014
rhumerus 1.53043 39.3975 -95.0941
rradius 126.835
rwrist 48.9173
rhand -11.1056 -62.2944
rfingers 7.12502
rthumb 14.9188 -268.263
lclavicle -2.54444e-014 -1.35174e-014
lhumerus -11.8721 -38.1842 103.864
lradius 129.612
lwrist -35.3797
lhand -33.8675 -9.32499
lfingers 7.12502
lthumb -7.0517 20.5375
rfemur -2.71294 15.877 28.3832
rtibia 6.96705
rfoot -16.7594 -27.2983
rtoes 7.46561
lfemur -0.733295 -39.4443 -5.39497
ltibia -2.13409
lfoot -8.8819 40.0305
ltoes -5.5359
303
root -0.166585 17.5653 8.13826 5.2854 10.4542 -10.0524
lowerback -0.473006 4.14351 5.5823
upperback -4.91294 5.67321 -0.227607
thorax -4.27056 2.61405 -3.50162
lowerneck -0.00175123 -2.20518 -0.769751
upperneck 16.3834 -4.45281 11.0413
head 5.16364 -1.54058 3.38491
rclavicle -4.52235e-015 6.36111e-015
rhumerus 2.15364 37.4274 -93.8271
rradius 127.002
rwrist 49.2728
rhand -7.00877 -63.3313
rfingers 7.12502
rthumb 18.8624 -267.563
lclavicle -4.52235e-015 6.36111e-015
lhumerus -11.2157 -37.1065 102.86
lradius 129.924
lwrist -33.7443
lhand -26.7404 -3.10243
lfingers 7.12502
lthumb -0.169328 26.8772
rfemur -2.67788 15.8847 28.3836
rtibia 6.95471
rfoot -16.7592 -27.2418
rtoes 7.1975
lfemur -0.502741 -39.8592 -5.54087
ltibia -2.25259
lfoot -9.06628 40.4873
ltoes -5.15163
304
root -0.164677 17.5646 8.13893 5.24679 10.5039 -10.1071
lowerback -0.567922 4.13716 5.67718
upperback -4.83071 5.65166 -0.362495
thorax -4.11081 2.6039 -3.68024
lowerneck 0.347765 -2.37717 -0.753336
upperneck 16.033 -4.69469 11.3964
head 5.01789 -1.66274 3.48429
rclavicle -3.2054e-015 0
rhumerus 2.76909 36.0913 -92.4538
rradius 127.254
rwrist 48.8384
rhand -2.5846 -64.248
rfingers 7.12502
rthumb 23.1126 -267.118
lclavicle -3.2054e-015 0
lhumerus -10.2272 -35.5367 101.698
lradius 130.046
lwrist -31.3421
lhand -20.7811 1.4724
lfingers 7.12502
lthumb 5.58574 31.3788
rfemur -2.62346 15.8922 28.4603
rtibia 6.94087
rfoot -16.7692 -27.294
rtoes 7.29312
lfemur -0.394449 -40.088 -5.54994
ltibia -2.32345
lfoot -9.02923 40.6911
ltoes -5.13129
305
root -0.165984 17.5649 8.13573 5.18181 10.6643 -10.1763
lowerback -0.608114 3.83451 5.54753
upperback -4.68556 5.24236 -0.185514
thorax -4.00362 2.4139 -3.41252
lowerneck 0.692628 -2.26388 -0.857213
upperneck 15.83 -4.49495 11.3052
head 4.88243 -1.59753 3.48412
rclavicle 4.07509e-015 7.95139e-016
rhumerus 3.39649 35.7327 -91.1416
rradius 127.817
rwrist 46.3398
rhand 0.98522 -64.6748
rfingers 7.12502
rthumb 26.5337 -267.164
lclavicle 4.07509e-015 7.95139e-016
lhumerus -8.68189 -33.2101 100.24
lradius 129.933
lwrist -29.2625
lhand -15.9464 4.95069
lfingers 7.12502
lthumb 10.2518 34.6809
rfemur -2.55985 15.9066 28.5673
rtibia 6.9178
rfoot -16.869 -27.4137
rtoes 7.681
lfemur -0.441488 -40.046 -5.42383
ltibia -2.34419
lfoot -8.84383 40.5199
ltoes -5.44489
